<?xml version="1.0" encoding="UTF-8" standalone="no"?>
<svg
   viewBox="0 0 24 24"
   version="1.1"
   id="svg4"
   sodipodi:docname="home.svg"
   inkscape:version="1.1 (c4e8f9ed74, 2021-05-24)"
   xmlns:inkscape="http://www.inkscape.org/namespaces/inkscape"
   xmlns:sodipodi="http://sodipodi.sourceforge.net/DTD/sodipodi-0.dtd"
   xmlns="http://www.w3.org/2000/svg"
   xmlns:svg="http://www.w3.org/2000/svg">
  <defs
     id="defs8" />
  <sodipodi:namedview
     id="namedview6"
     pagecolor="#ffffff"
     bordercolor="#666666"
     borderopacity="1.0"
     inkscape:pageshadow="2"
     inkscape:pageopacity="0.0"
     inkscape:pagecheckerboard="0"
     showgrid="false"
     inkscape:zoom="23.583333"
     inkscape:cx="11.978799"
     inkscape:cy="12"
     inkscape:window-width="1356"
     inkscape:window-height="718"
     inkscape:window-x="5"
     inkscape:window-y="45"
     inkscape:window-maximized="1"
     inkscape:current-layer="svg4" />
  <path
     fill="#6563ff"
     d="M 20,8 V 8 L 14,2.74 c -1.138803,-1.018576 -2.861197,-1.018576 -4,0 L 4,8 C 3.3574443,8.5746702 2.9931475,9.397981 3,10.26 V 19 c 0,1.656854 1.3431458,3 3,3 h 12 c 1.656854,0 3,-1.343146 3,-3 V 10.25 C 21.003979,9.3914604 20.639933,8.5723567 20,8 Z m -1,11 c 0,0.552285 -0.447715,1 -1,1 C 6,20 7.1132436,19.985644 6,20 5.4477153,20 5,19.552285 5,19 V 10.25 C 5.0003637,9.9627728 5.1242157,9.6895698 5.34,9.5 l 6,-5.25 c 0.377506,-0.3316459 0.942494,-0.3316459 1.32,0 l 6,5.25 c 0.215784,0.1895698 0.339636,0.4627728 0.34,0.75 z"
     id="path2"
     sodipodi:nodetypes="scccccsssscssccsccccccs" />
</svg>
